solid PwKeeper_lid_r
facet normal -1.0 0.0 0.0
  outer loop
    vertex -2.000000000000001 9.999999999999998 3.0
    vertex -2.000000000000001 -10.000000000000002 0.0
    vertex -2.000000000000001 -10.000000000000002 3.0
  endloop
endfacet
facet normal -1.0 0.0 0.0
  outer loop
    vertex -2.000000000000001 -10.000000000000002 0.0
    vertex -2.000000000000001 9.999999999999998 3.0
    vertex -2.000000000000001 9.999999999999998 0.0
  endloop
endfacet
facet normal -0.0 1.0 -0.0
  outer loop
    vertex 4.7 -9.5 3.0
    vertex 39.9 -9.5 0.0
    vertex 4.7 -9.5 0.0
  endloop
endfacet
facet normal -0.0 1.0 -0.0
  outer loop
    vertex 39.9 -9.5 0.0
    vertex 4.7 -9.5 3.0
    vertex 39.9 -9.5 1.6999999999999997
  endloop
endfacet
facet normal -0.0 1.0 -0.0
  outer loop
    vertex 39.9 -9.5 1.6999999999999997
    vertex 4.7 -9.5 3.0
    vertex 41.0 -9.5 1.6999999999999997
  endloop
endfacet
facet normal -0.0 1.0 -0.0
  outer loop
    vertex 41.0 -9.5 1.6999999999999997
    vertex 4.7 -9.5 3.0
    vertex 41.0 -9.5 3.0
  endloop
endfacet
facet normal 0.0 -1.0 0.0
  outer loop
    vertex 41.0 9.5 3.0
    vertex 39.8 9.5 1.5
    vertex 41.0 9.5 1.5
  endloop
endfacet
facet normal 0.0 -1.0 0.0
  outer loop
    vertex 39.8 9.5 1.5
    vertex 41.0 9.5 3.0
    vertex 4.5 9.5 3.0
  endloop
endfacet
facet normal 0.0 -1.0 0.0
  outer loop
    vertex 39.8 9.5 1.5
    vertex 4.5 9.5 0.0
    vertex 39.8 9.5 0.0
  endloop
endfacet
facet normal 0.0 -1.0 0.0
  outer loop
    vertex 4.5 9.5 0.0
    vertex 39.8 9.5 1.5
    vertex 4.5 9.5 3.0
  endloop
endfacet
facet normal -1.0 0.0 0.0
  outer loop
    vertex 41.0 9.5 3.0
    vertex 41.0 -9.5 1.6999999999999997
    vertex 41.0 -9.5 3.0
  endloop
endfacet
facet normal -1.0 0.0 0.0
  outer loop
    vertex 41.0 -9.5 1.6999999999999997
    vertex 41.0 9.5 3.0
    vertex 41.0 -7.999999999999999 1.6999999999999997
  endloop
endfacet
facet normal -1.0 0.0 0.0
  outer loop
    vertex 41.0 -7.999999999999999 1.6999999999999997
    vertex 41.0 9.5 3.0
    vertex 41.0 -7.999999999999999 0.9999999999999999
  endloop
endfacet
facet normal -1.0 0.0 0.0
  outer loop
    vertex 41.0 -7.999999999999999 0.9999999999999999
    vertex 41.0 9.5 3.0
    vertex 41.0 -7.999999999999999 0.0
  endloop
endfacet
facet normal -1.0 0.0 0.0
  outer loop
    vertex 41.0 -7.999999999999999 0.0
    vertex 41.0 9.5 3.0
    vertex 41.0 7.999999999999999 1.5
  endloop
endfacet
facet normal -1.0 0.0 0.0
  outer loop
    vertex 41.0 7.999999999999999 1.5
    vertex 41.0 9.5 3.0
    vertex 41.0 9.5 1.5
  endloop
endfacet
facet normal -1.0 0.0 0.0
  outer loop
    vertex 41.0 7.999999999999999 1.5
    vertex 41.0 7.999999999999999 0.0
    vertex 41.0 -7.999999999999999 0.0
  endloop
endfacet
facet normal -1.0 0.0 0.0
  outer loop
    vertex 41.0 7.999999999999999 0.0
    vertex 41.0 7.999999999999999 1.5
    vertex 41.0 7.999999999999999 0.9999999999999999
  endloop
endfacet
facet normal -0.5547001962252299 2.093686575158088e-18 -0.8320502943378434
  outer loop
    vertex 35.0 5.5 -0.9999999999999999
    vertex 33.5 -3.500000000000002 0.0
    vertex 33.5 3.5000000000000004 0.0
  endloop
endfacet
facet normal -0.5547001962252299 2.093686575158088e-18 -0.8320502943378434
  outer loop
    vertex 33.5 -3.500000000000002 0.0
    vertex 35.0 5.5 -0.9999999999999999
    vertex 35.0 -5.468186816869976 -0.9999999999999999
  endloop
endfacet
facet normal -7.38507297031214e-34 -0.4472135954999581 -0.8944271909999159
  outer loop
    vertex 35.0 5.5 -0.9999999999999999
    vertex 7.499999999999999 3.5000000000000004 0.0
    vertex 5.999999999999999 5.5 -0.9999999999999999
  endloop
endfacet
facet normal -7.38507297031214e-34 -0.4472135954999581 -0.8944271909999159
  outer loop
    vertex 7.499999999999999 3.5000000000000004 0.0
    vertex 35.0 5.5 -0.9999999999999999
    vertex 33.5 3.5000000000000004 0.0
  endloop
endfacet
facet normal 0.5547001962252291 3.633869802860578e-18 -0.8320502943378438
  outer loop
    vertex 7.499999999999999 3.5000000000000004 0.0
    vertex 5.999999999999999 -5.468186816869976 -0.9999999999999999
    vertex 5.999999999999999 5.5 -0.9999999999999999
  endloop
endfacet
facet normal 0.5547001962252291 3.633869802860578e-18 -0.8320502943378438
  outer loop
    vertex 5.999999999999999 -5.468186816869976 -0.9999999999999999
    vertex 7.499999999999999 3.5000000000000004 0.0
    vertex 7.499999999999999 -3.500000000000002 0.0
  endloop
endfacet
facet normal -1.3792440893788523e-18 0.452968456000458 -0.8915265435580486
  outer loop
    vertex 7.499999999999999 -3.500000000000002 0.0
    vertex 35.0 -5.468186816869976 -0.9999999999999999
    vertex 5.999999999999999 -5.468186816869976 -0.9999999999999999
  endloop
endfacet
facet normal -1.3792440893788523e-18 0.452968456000458 -0.8915265435580486
  outer loop
    vertex 35.0 -5.468186816869976 -0.9999999999999999
    vertex 7.499999999999999 -3.500000000000002 0.0
    vertex 33.5 -3.500000000000002 0.0
  endloop
endfacet
facet normal 1.0 -0.0 -0.0
  outer loop
    vertex 4.7 -7.999999999999999 0.0
    vertex 4.7 -9.5 3.0
    vertex 4.7 -9.5 0.0
  endloop
endfacet
facet normal 1.0 -0.0 -0.0
  outer loop
    vertex 4.7 -9.5 3.0
    vertex 4.7 -7.999999999999999 0.0
    vertex 4.7 -9.5 3.75
  endloop
endfacet
facet normal 1.0 -0.0 -0.0
  outer loop
    vertex 4.7 -9.5 3.75
    vertex 4.7 -7.999999999999999 0.0
    vertex 4.7 -8.000000000000002 3.75
  endloop
endfacet
facet normal 3.103811565305317e-16 1.0 2.813776174962979e-16
  outer loop
    vertex -0.49999999999999933 -7.999999999999999 4.800000000000001
    vertex 0.5000000000000004 -7.999999999999999 3.0
    vertex -0.49999999999999944 -7.999999999999999 3.0
  endloop
endfacet
facet normal 3.103811565305317e-16 1.0 2.813776174962979e-16
  outer loop
    vertex 0.5000000000000004 -7.999999999999999 3.0
    vertex -0.49999999999999933 -7.999999999999999 4.800000000000001
    vertex 4.7 -8.000000000000002 3.75
  endloop
endfacet
facet normal 3.103811565305317e-16 1.0 2.813776174962979e-16
  outer loop
    vertex -0.49999999999999944 -7.999999999999999 2.0
    vertex 4.7 -7.999999999999999 0.0
    vertex -0.49999999999999944 -7.999999999999999 0.0
  endloop
endfacet
facet normal 3.103811565305317e-16 1.0 2.813776174962979e-16
  outer loop
    vertex 4.7 -7.999999999999999 0.0
    vertex -0.49999999999999944 -7.999999999999999 2.0
    vertex 4.7 -8.000000000000002 3.75
  endloop
endfacet
facet normal 3.103811565305317e-16 1.0 2.813776174962979e-16
  outer loop
    vertex 4.7 -8.000000000000002 3.75
    vertex -0.49999999999999944 -7.999999999999999 2.0
    vertex 0.5000000000000004 -7.999999999999999 3.0
  endloop
endfacet
facet normal -1.0 3.044014010242064e-33 4.8957751433123196e-17
  outer loop
    vertex -0.49999999999999933 -7.999999999999999 4.800000000000001
    vertex -0.49999999999999944 -9.5 3.0
    vertex -0.49999999999999933 -9.5 4.800000000000001
  endloop
endfacet
facet normal -1.0 3.044014010242064e-33 4.8957751433123196e-17
  outer loop
    vertex -0.49999999999999944 -9.5 3.0
    vertex -0.49999999999999933 -7.999999999999999 4.800000000000001
    vertex -0.49999999999999944 -7.999999999999999 3.0
  endloop
endfacet
facet normal 1.0 -0.0 -0.0
  outer loop
    vertex 4.5 9.5 0.0
    vertex 4.5 8.299999999999999 3.7034562848340227
    vertex 4.5 8.299999999999999 0.0
  endloop
endfacet
facet normal 1.0 -0.0 -0.0
  outer loop
    vertex 4.5 8.299999999999999 3.7034562848340227
    vertex 4.5 9.5 0.0
    vertex 4.5 9.5 3.7034562848340227
  endloop
endfacet
facet normal 1.0 -0.0 -0.0
  outer loop
    vertex 4.5 9.5 3.7034562848340227
    vertex 4.5 9.5 0.0
    vertex 4.5 9.5 3.0
  endloop
endfacet
facet normal 0.0 -1.0 0.0
  outer loop
    vertex 4.5 8.299999999999999 3.7034562848340227
    vertex -0.49999999999999944 8.299999999999999 0.0
    vertex 4.5 8.299999999999999 0.0
  endloop
endfacet
facet normal 0.0 -1.0 0.0
  outer loop
    vertex -0.49999999999999944 8.299999999999999 0.0
    vertex 4.5 8.299999999999999 3.7034562848340227
    vertex -0.49999999999999944 8.299999999999999 2.0
  endloop
endfacet
facet normal 0.0 -1.0 0.0
  outer loop
    vertex -0.49999999999999944 8.299999999999999 2.0
    vertex 4.5 8.299999999999999 3.7034562848340227
    vertex 0.5000000000000004 8.299999999999999 3.0
  endloop
endfacet
facet normal 0.0 -1.0 0.0
  outer loop
    vertex 0.5000000000000004 8.299999999999999 3.0
    vertex 4.5 8.299999999999999 3.7034562848340227
    vertex -0.49999999999999944 8.299999999999999 3.0
  endloop
endfacet
facet normal 0.0 -1.0 0.0
  outer loop
    vertex -0.49999999999999944 8.299999999999999 3.0
    vertex 4.5 8.299999999999999 3.7034562848340227
    vertex -0.5079758931567792 8.299999999999999 4.750800978319154
  endloop
endfacet
facet normal 0.0 -1.0 0.0
  outer loop
    vertex 4.7 -9.5 3.75
    vertex -0.49999999999999944 -9.5 3.0
    vertex 4.7 -9.5 3.0
  endloop
endfacet
facet normal 0.0 -1.0 0.0
  outer loop
    vertex -0.49999999999999944 -9.5 3.0
    vertex 4.7 -9.5 3.75
    vertex -0.49999999999999933 -9.5 4.800000000000001
  endloop
endfacet
facet normal 0.19792833060515333 -1.6144260848389245e-31 0.980216494425521
  outer loop
    vertex 4.7 -9.5 3.75
    vertex -0.49999999999999933 -7.999999999999999 4.800000000000001
    vertex -0.49999999999999933 -9.5 4.800000000000001
  endloop
endfacet
facet normal 0.19792833060515333 -1.6144260848389245e-31 0.980216494425521
  outer loop
    vertex -0.49999999999999933 -7.999999999999999 4.800000000000001
    vertex 4.7 -9.5 3.75
    vertex 4.7 -8.000000000000002 3.75
  endloop
endfacet
facet normal -1.0 -0.0 -0.0
  outer loop
    vertex 39.8 9.5 1.5
    vertex 39.8 7.999999999999999 0.0
    vertex 39.8 7.999999999999999 1.5
  endloop
endfacet
facet normal -1.0 -0.0 -0.0
  outer loop
    vertex 39.8 7.999999999999999 0.0
    vertex 39.8 9.5 1.5
    vertex 39.8 9.5 0.0
  endloop
endfacet
facet normal 0.0 -1.0 0.0
  outer loop
    vertex 41.0 7.999999999999999 0.9999999999999999
    vertex 39.8 7.999999999999999 0.0
    vertex 41.0 7.999999999999999 0.0
  endloop
endfacet
facet normal 0.0 -1.0 0.0
  outer loop
    vertex 39.8 7.999999999999999 0.0
    vertex 41.0 7.999999999999999 0.9999999999999999
    vertex 39.8 7.999999999999999 1.5
  endloop
endfacet
facet normal 0.0 -1.0 0.0
  outer loop
    vertex 39.8 7.999999999999999 1.5
    vertex 41.0 7.999999999999999 0.9999999999999999
    vertex 41.0 7.999999999999999 1.5
  endloop
endfacet
facet normal 0.0 0.0 1.0
  outer loop
    vertex 41.0 7.999999999999999 1.5
    vertex 39.8 9.5 1.5
    vertex 39.8 7.999999999999999 1.5
  endloop
endfacet
facet normal 0.0 0.0 1.0
  outer loop
    vertex 39.8 9.5 1.5
    vertex 41.0 7.999999999999999 1.5
    vertex 41.0 9.5 1.5
  endloop
endfacet
facet normal -0.0 -0.0 1.0
  outer loop
    vertex 39.9 -9.5 0.0
    vertex 4.7 -7.999999999999999 0.0
    vertex 4.7 -9.5 0.0
  endloop
endfacet
facet normal -0.0 -0.0 1.0
  outer loop
    vertex 4.7 -7.999999999999999 0.0
    vertex 39.9 -9.5 0.0
    vertex 7.499999999999999 -3.500000000000002 0.0
  endloop
endfacet
facet normal -0.0 -0.0 1.0
  outer loop
    vertex 7.499999999999999 -3.500000000000002 0.0
    vertex 39.9 -9.5 0.0
    vertex 36.976254734144796 -8.5 0.0
  endloop
endfacet
facet normal -0.0 -0.0 1.0
  outer loop
    vertex 7.499999999999999 -3.500000000000002 0.0
    vertex 36.976254734144796 -8.5 0.0
    vertex 33.5 -3.500000000000002 0.0
  endloop
endfacet
facet normal -0.0 -0.0 1.0
  outer loop
    vertex 33.5 -3.500000000000002 0.0
    vertex 36.976254734144796 -8.5 0.0
    vertex 33.5 3.5000000000000004 0.0
  endloop
endfacet
facet normal -0.0 -0.0 1.0
  outer loop
    vertex 36.976254734144796 -8.5 0.0
    vertex 39.9 -9.5 0.0
    vertex 38.976254734144796 -8.5 0.0
  endloop
endfacet
facet normal -0.0 -0.0 1.0
  outer loop
    vertex 38.976254734144796 -8.5 0.0
    vertex 39.9 -9.5 0.0
    vertex 38.976254734144796 -7.5 0.0
  endloop
endfacet
facet normal -0.0 -0.0 1.0
  outer loop
    vertex 38.976254734144796 -7.5 0.0
    vertex 39.9 -9.5 0.0
    vertex 39.0762547341448 7.5 0.0
  endloop
endfacet
facet normal -0.0 -0.0 1.0
  outer loop
    vertex 39.0762547341448 7.5 0.0
    vertex 39.9 -9.5 0.0
    vertex 39.0762547341448 8.5 0.0
  endloop
endfacet
facet normal -0.0 -0.0 1.0
  outer loop
    vertex 39.0762547341448 8.5 0.0
    vertex 39.9 -9.5 0.0
    vertex 39.8 7.999999999999999 0.0
  endloop
endfacet
facet normal -0.0 -0.0 1.0
  outer loop
    vertex 39.8 7.999999999999999 0.0
    vertex 39.9 -9.5 0.0
    vertex 39.9 -7.999999999999999 0.0
  endloop
endfacet
facet normal -0.0 -0.0 1.0
  outer loop
    vertex 39.8 7.999999999999999 0.0
    vertex 39.9 -7.999999999999999 0.0
    vertex 41.0 7.999999999999999 0.0
  endloop
endfacet
facet normal -0.0 -0.0 1.0
  outer loop
    vertex 41.0 7.999999999999999 0.0
    vertex 39.9 -7.999999999999999 0.0
    vertex 41.0 -7.999999999999999 0.0
  endloop
endfacet
facet normal -0.0 -0.0 1.0
  outer loop
    vertex 4.7 -7.999999999999999 0.0
    vertex -0.49999999999999944 8.299999999999999 0.0
    vertex -0.49999999999999944 -7.999999999999999 0.0
  endloop
endfacet
facet normal -0.0 -0.0 1.0
  outer loop
    vertex -0.49999999999999944 8.299999999999999 0.0
    vertex 4.7 -7.999999999999999 0.0
    vertex 4.5 8.299999999999999 0.0
  endloop
endfacet
facet normal -0.0 -0.0 1.0
  outer loop
    vertex 4.5 8.299999999999999 0.0
    vertex 4.7 -7.999999999999999 0.0
    vertex 4.5 9.5 0.0
  endloop
endfacet
facet normal -0.0 -0.0 1.0
  outer loop
    vertex 4.5 9.5 0.0
    vertex 4.7 -7.999999999999999 0.0
    vertex 7.499999999999999 3.5000000000000004 0.0
  endloop
endfacet
facet normal -0.0 -0.0 1.0
  outer loop
    vertex 4.5 9.5 0.0
    vertex 7.499999999999999 3.5000000000000004 0.0
    vertex 39.8 9.5 0.0
  endloop
endfacet
facet normal -0.0 -0.0 1.0
  outer loop
    vertex 7.499999999999999 3.5000000000000004 0.0
    vertex 4.7 -7.999999999999999 0.0
    vertex 7.499999999999999 -3.500000000000002 0.0
  endloop
endfacet
facet normal -0.0 -0.0 1.0
  outer loop
    vertex 39.8 9.5 0.0
    vertex 7.499999999999999 3.5000000000000004 0.0
    vertex 36.976254734144796 8.5 0.0
  endloop
endfacet
facet normal -0.0 -0.0 1.0
  outer loop
    vertex 36.976254734144796 8.5 0.0
    vertex 7.499999999999999 3.5000000000000004 0.0
    vertex 33.5 3.5000000000000004 0.0
  endloop
endfacet
facet normal -0.0 -0.0 1.0
  outer loop
    vertex 36.976254734144796 8.5 0.0
    vertex 33.5 3.5000000000000004 0.0
    vertex 36.976254734144796 -8.5 0.0
  endloop
endfacet
facet normal -0.0 -0.0 1.0
  outer loop
    vertex 36.976254734144796 8.5 0.0
    vertex 36.976254734144796 -8.5 0.0
    vertex 36.976254734144796 -7.5 0.0
  endloop
endfacet
facet normal -0.0 -0.0 1.0
  outer loop
    vertex 36.976254734144796 8.5 0.0
    vertex 36.976254734144796 -7.5 0.0
    vertex 36.976254734144796 7.5 0.0
  endloop
endfacet
facet normal -0.0 -0.0 1.0
  outer loop
    vertex 39.8 9.5 0.0
    vertex 36.976254734144796 8.5 0.0
    vertex 39.0762547341448 8.5 0.0
  endloop
endfacet
facet normal -0.0 -0.0 1.0
  outer loop
    vertex 39.8 9.5 0.0
    vertex 39.0762547341448 8.5 0.0
    vertex 39.8 7.999999999999999 0.0
  endloop
endfacet
facet normal -0.0 -0.0 1.0
  outer loop
    vertex 38.976254734144796 -7.5 0.0
    vertex 36.976254734144796 7.5 0.0
    vertex 36.976254734144796 -7.5 0.0
  endloop
endfacet
facet normal -0.0 -0.0 1.0
  outer loop
    vertex 36.976254734144796 7.5 0.0
    vertex 38.976254734144796 -7.5 0.0
    vertex 39.0762547341448 7.5 0.0
  endloop
endfacet
facet normal -0.0 1.0 -0.0
  outer loop
    vertex 39.9 -7.999999999999999 1.6999999999999997
    vertex 41.0 -7.999999999999999 0.0
    vertex 39.9 -7.999999999999999 0.0
  endloop
endfacet
facet normal -0.0 1.0 -0.0
  outer loop
    vertex 41.0 -7.999999999999999 0.0
    vertex 39.9 -7.999999999999999 1.6999999999999997
    vertex 41.0 -7.999999999999999 0.9999999999999999
  endloop
endfacet
facet normal -0.0 1.0 -0.0
  outer loop
    vertex 41.0 -7.999999999999999 0.9999999999999999
    vertex 39.9 -7.999999999999999 1.6999999999999997
    vertex 41.0 -7.999999999999999 1.6999999999999997
  endloop
endfacet
facet normal -1.0 -0.0 -0.0
  outer loop
    vertex 39.9 -7.999999999999999 1.6999999999999997
    vertex 39.9 -9.5 0.0
    vertex 39.9 -9.5 1.6999999999999997
  endloop
endfacet
facet normal -1.0 -0.0 -0.0
  outer loop
    vertex 39.9 -9.5 0.0
    vertex 39.9 -7.999999999999999 1.6999999999999997
    vertex 39.9 -7.999999999999999 0.0
  endloop
endfacet
facet normal -0.0 -0.0 1.0
  outer loop
    vertex 41.0 -9.5 1.6999999999999997
    vertex 39.9 -7.999999999999999 1.6999999999999997
    vertex 39.9 -9.5 1.6999999999999997
  endloop
endfacet
facet normal -0.0 -0.0 1.0
  outer loop
    vertex 39.9 -7.999999999999999 1.6999999999999997
    vertex 41.0 -9.5 1.6999999999999997
    vertex 41.0 -7.999999999999999 1.6999999999999997
  endloop
endfacet
facet normal 5.963537983515139e-17 -1.0 -9.421844930972453e-17
  outer loop
    vertex 43.0 8.999999999999998 1.0
    vertex 41.0 8.999999999999998 0.9999999999999999
    vertex 41.16145561298043 9.0 0.9999999999999999
  endloop
endfacet
facet normal 5.963537983515139e-17 -1.0 -9.421844930972453e-17
  outer loop
    vertex 41.0 8.999999999999998 0.9999999999999999
    vertex 43.0 8.999999999999998 1.0
    vertex 41.16145561298043 8.999999999999998 1.2152741506405746
  endloop
endfacet
facet normal 5.963537983515139e-17 -1.0 -9.421844930972453e-17
  outer loop
    vertex 41.16145561298043 8.999999999999998 1.2152741506405746
    vertex 43.0 8.999999999999998 1.0
    vertex 43.0 8.999999999999998 2.9999999999999996
  endloop
endfacet
facet normal 5.963537983515139e-17 -1.0 -9.421844930972453e-17
  outer loop
    vertex 41.16145561298043 8.999999999999998 1.2152741506405746
    vertex 43.0 8.999999999999998 2.9999999999999996
    vertex 42.5 8.999999999999998 3.0
  endloop
endfacet
facet normal 0.0 1.0 0.0
  outer loop
    vertex 41.16145561298043 9.699999999999994 1.2152741506405744
    vertex 41.16145561298043 9.699999999999994 0.9999999999999999
    vertex 41.0 9.699999999999994 0.9999999999999999
  endloop
endfacet
facet normal 1.0 -0.0 -0.0
  outer loop
    vertex 41.16145561298043 9.0 0.9999999999999999
    vertex 41.16145561298043 -9.5 1.2152741506405744
    vertex 41.16145561298043 -9.5 0.9999999999999999
  endloop
endfacet
facet normal 1.0 -0.0 -0.0
  outer loop
    vertex 41.16145561298043 -9.5 1.2152741506405744
    vertex 41.16145561298043 9.0 0.9999999999999999
    vertex 41.16145561298043 8.999999999999998 1.2152741506405746
  endloop
endfacet
facet normal 1.0 -0.0 -0.0
  outer loop
    vertex 41.16145561298043 8.999999999999998 1.2152741506405746
    vertex 41.16145561298043 9.0 0.9999999999999999
    vertex 41.16145561298043 9.699999999999994 1.2152741506405744
  endloop
endfacet
facet normal 1.0 -0.0 -0.0
  outer loop
    vertex 41.16145561298043 9.699999999999994 1.2152741506405744
    vertex 41.16145561298043 9.0 0.9999999999999999
    vertex 41.16145561298043 9.699999999999994 0.9999999999999999
  endloop
endfacet
facet normal -4.7931370709236955e-17 -4.6381027673485156e-18 1.0
  outer loop
    vertex 43.0 -9.5 0.9999999999999999
    vertex 41.16145561298043 9.0 0.9999999999999999
    vertex 41.16145561298043 -9.5 0.9999999999999999
  endloop
endfacet
facet normal -4.7931370709236955e-17 -4.6381027673485156e-18 1.0
  outer loop
    vertex 41.16145561298043 9.0 0.9999999999999999
    vertex 43.0 -9.5 0.9999999999999999
    vertex 43.0 8.999999999999998 1.0
  endloop
endfacet
facet normal 0.7999999999999997 4.9603288543432435e-18 -0.6000000000000004
  outer loop
    vertex 41.16145561298043 8.999999999999998 1.2152741506405746
    vertex 42.5 -9.5 3.0
    vertex 41.16145561298043 -9.5 1.2152741506405744
  endloop
endfacet
facet normal 0.7999999999999997 4.9603288543432435e-18 -0.6000000000000004
  outer loop
    vertex 42.5 -9.5 3.0
    vertex 41.16145561298043 8.999999999999998 1.2152741506405746
    vertex 42.5 8.999999999999998 3.0
  endloop
endfacet
facet normal 1.6395153968301727e-17 -1.0 -2.3499720687899147e-16
  outer loop
    vertex 42.0 -11.0 3.0
    vertex -1.0000000000000009 -11.0 0.0
    vertex 42.0 -11.0 0.0
  endloop
endfacet
facet normal 1.6395153968301727e-17 -1.0 -2.3499720687899147e-16
  outer loop
    vertex -1.0000000000000009 -11.0 0.0
    vertex 42.0 -11.0 3.0
    vertex -0.9999999999999996 -11.000000000000002 3.0
  endloop
endfacet
facet normal 0.0 0.0 -1.0
  outer loop
    vertex -1.0000000000000009 9.999999999999998 -0.9999999999999999
    vertex 5.999999999999999 5.5 -0.9999999999999999
    vertex -1.0000000000000009 -10.0 -0.9999999999999999
  endloop
endfacet
facet normal 0.0 0.0 -1.0
  outer loop
    vertex 5.999999999999999 5.5 -0.9999999999999999
    vertex -1.0000000000000009 9.999999999999998 -0.9999999999999999
    vertex 42.0 9.999999999999998 -0.9999999999999999
  endloop
endfacet
facet normal 0.0 0.0 -1.0
  outer loop
    vertex 5.999999999999999 5.5 -0.9999999999999999
    vertex 42.0 9.999999999999998 -0.9999999999999999
    vertex 35.0 5.5 -0.9999999999999999
  endloop
endfacet
facet normal 0.0 0.0 -1.0
  outer loop
    vertex 35.0 5.5 -0.9999999999999999
    vertex 42.0 9.999999999999998 -0.9999999999999999
    vertex 35.0 -5.468186816869976 -0.9999999999999999
  endloop
endfacet
facet normal 0.0 0.0 -1.0
  outer loop
    vertex -1.0000000000000009 -10.0 -0.9999999999999999
    vertex 5.999999999999999 -5.468186816869976 -0.9999999999999999
    vertex 42.0 -9.999999999999998 -0.9999999999999999
  endloop
endfacet
facet normal 0.0 0.0 -1.0
  outer loop
    vertex 5.999999999999999 -5.468186816869976 -0.9999999999999999
    vertex -1.0000000000000009 -10.0 -0.9999999999999999
    vertex 5.999999999999999 5.5 -0.9999999999999999
  endloop
endfacet
facet normal 0.0 0.0 -1.0
  outer loop
    vertex 42.0 -9.999999999999998 -0.9999999999999999
    vertex 5.999999999999999 -5.468186816869976 -0.9999999999999999
    vertex 35.0 -5.468186816869976 -0.9999999999999999
  endloop
endfacet
facet normal 0.0 0.0 -1.0
  outer loop
    vertex 42.0 -9.999999999999998 -0.9999999999999999
    vertex 35.0 -5.468186816869976 -0.9999999999999999
    vertex 42.0 9.999999999999998 -0.9999999999999999
  endloop
endfacet
facet normal 1.0 -0.0 -0.0
  outer loop
    vertex 43.0 9.999999999999998 0.0
    vertex 43.0 -9.5 0.9999999999999999
    vertex 43.0 -9.999999999999998 0.0
  endloop
endfacet
facet normal 1.0 -0.0 -0.0
  outer loop
    vertex 43.0 -9.5 0.9999999999999999
    vertex 43.0 9.999999999999998 0.0
    vertex 43.0 8.999999999999998 1.0
  endloop
endfacet
facet normal 1.0 -0.0 -0.0
  outer loop
    vertex 43.0 8.999999999999998 1.0
    vertex 43.0 9.999999999999998 0.0
    vertex 43.0 8.999999999999998 2.9999999999999996
  endloop
endfacet
facet normal 1.0 -0.0 -0.0
  outer loop
    vertex 43.0 8.999999999999998 2.9999999999999996
    vertex 43.0 9.999999999999998 0.0
    vertex 43.0 9.999999999999996 2.9999999999999996
  endloop
endfacet
facet normal 1.0 -0.0 -0.0
  outer loop
    vertex 43.0 -9.999999999999998 0.0
    vertex 43.0 -9.5 3.0
    vertex 43.0 -10.0 3.0
  endloop
endfacet
facet normal 1.0 -0.0 -0.0
  outer loop
    vertex 43.0 -9.5 3.0
    vertex 43.0 -9.999999999999998 0.0
    vertex 43.0 -9.5 0.9999999999999999
  endloop
endfacet
facet normal 3.2790307936603455e-17 1.0 1.0017320011144983e-32
  outer loop
    vertex -1.0000000000000009 10.999999999999998 3.0
    vertex 42.0 10.999999999999996 0.0
    vertex -1.0000000000000009 10.999999999999998 0.0
  endloop
endfacet
facet normal 3.2790307936603455e-17 1.0 1.0017320011144983e-32
  outer loop
    vertex 42.0 10.999999999999996 0.0
    vertex -1.0000000000000009 10.999999999999998 3.0
    vertex 42.0 10.999999999999996 2.9999999999999996
  endloop
endfacet
facet normal 2.983327552291315e-17 -0.9238795325112862 -0.3826834323650914
  outer loop
    vertex 42.25881904510253 -10.965925826289068 -0.25881904510252096
    vertex -1.5000000000000058 -10.86602540378444 -0.5
    vertex 42.50000000000001 -10.866025403784437 -0.5
  endloop
endfacet
facet normal 2.983327552291315e-17 -0.9238795325112862 -0.3826834323650914
  outer loop
    vertex -1.5000000000000058 -10.86602540378444 -0.5
    vertex 42.25881904510253 -10.965925826289068 -0.25881904510252096
    vertex -1.2588190451025265 -10.96592582628907 -0.25881904510252096
  endloop
endfacet
facet normal 4.178200941588212e-18 -0.13052619222005077 -0.9914448613738105
  outer loop
    vertex -1.0000000000000009 -10.0 -0.9999999999999999
    vertex 42.25881904510253 -10.258819045102522 -0.9659258262890682
    vertex -1.2588190451025238 -10.258819045102523 -0.9659258262890682
  endloop
endfacet
facet normal 4.178200941588212e-18 -0.13052619222005077 -0.9914448613738105
  outer loop
    vertex 42.25881904510253 -10.258819045102522 -0.9659258262890682
    vertex -1.0000000000000009 -10.0 -0.9999999999999999
    vertex 42.0 -9.999999999999998 -0.9999999999999999
  endloop
endfacet
facet normal 1.2301431732818387e-17 -0.38268343236508967 -0.9238795325112868
  outer loop
    vertex -1.2588190451025238 -10.258819045102523 -0.9659258262890682
    vertex 42.5 -10.5 -0.8660254037844386
    vertex -1.5 -10.500000000000002 -0.8660254037844386
  endloop
endfacet
facet normal 1.2301431732818387e-17 -0.38268343236508967 -0.9238795325112868
  outer loop
    vertex 42.5 -10.5 -0.8660254037844386
    vertex -1.2588190451025238 -10.258819045102523 -0.9659258262890682
    vertex 42.25881904510253 -10.258819045102522 -0.9659258262890682
  endloop
endfacet
facet normal 1.9321929054852052e-17 -0.608761429008721 -0.7933533402912349
  outer loop
    vertex -1.5 -10.500000000000002 -0.8660254037844386
    vertex 42.70710678118655 -10.707106781186548 -0.7071067811865476
    vertex -1.7071067811865503 -10.70710678118655 -0.7071067811865476
  endloop
endfacet
facet normal 1.9321929054852052e-17 -0.608761429008721 -0.7933533402912349
  outer loop
    vertex 42.70710678118655 -10.707106781186548 -0.7071067811865476
    vertex -1.5 -10.500000000000002 -0.8660254037844386
    vertex 42.5 -10.5 -0.8660254037844386
  endloop
endfacet
facet normal 2.5328851523743686e-17 -0.7933533402912375 -0.6087614290087177
  outer loop
    vertex 42.50000000000001 -10.866025403784437 -0.5
    vertex -1.7071067811865503 -10.70710678118655 -0.7071067811865476
    vertex 42.70710678118655 -10.707106781186548 -0.7071067811865476
  endloop
endfacet
facet normal 2.5328851523743686e-17 -0.7933533402912375 -0.6087614290087177
  outer loop
    vertex -1.7071067811865503 -10.70710678118655 -0.7071067811865476
    vertex 42.50000000000001 -10.866025403784437 -0.5
    vertex -1.5000000000000058 -10.86602540378444 -0.5
  endloop
endfacet
facet normal -0.7933533402912354 0.6087614290087204 4.899963244667558e-19
  outer loop
    vertex -1.7071067811865486 10.707106781186544 3.0
    vertex -1.8660254037844395 10.499999999999998 -0.5
    vertex -1.8660254037844395 10.499999999999998 3.0
  endloop
endfacet
facet normal -0.7933533402912354 0.6087614290087204 4.899963244667558e-19
  outer loop
    vertex -1.8660254037844395 10.499999999999998 -0.5
    vertex -1.7071067811865486 10.707106781186544 3.0
    vertex -1.7071067811865486 10.707106781186544 -0.7071067811865476
  endloop
endfacet
facet normal -0.6087614290087245 0.7933533402912322 3.1090266787415766e-16
  outer loop
    vertex -1.7071067811865486 10.707106781186544 3.0
    vertex -1.5000000000000029 10.866025403784437 -0.5
    vertex -1.7071067811865486 10.707106781186544 -0.7071067811865476
  endloop
endfacet
facet normal -0.6087614290087245 0.7933533402912322 3.1090266787415766e-16
  outer loop
    vertex -1.5000000000000029 10.866025403784437 -0.5
    vertex -1.7071067811865486 10.707106781186544 3.0
    vertex -1.5000000000000009 10.866025403784436 3.0
  endloop
endfacet
facet normal -0.38268343236508917 0.9238795325112871 4.190426908485254e-16
  outer loop
    vertex -1.5000000000000009 10.866025403784436 3.0
    vertex -1.2588190451025238 10.965925826289066 -0.25881904510252096
    vertex -1.5000000000000029 10.866025403784437 -0.5
  endloop
endfacet
facet normal -0.38268343236508917 0.9238795325112871 4.190426908485254e-16
  outer loop
    vertex -1.2588190451025238 10.965925826289066 -0.25881904510252096
    vertex -1.5000000000000009 10.866025403784436 3.0
    vertex -1.2588190451025218 10.965925826289066 3.0
  endloop
endfacet
facet normal -0.1305261922200513 0.9914448613738105 4.233524706021689e-17
  outer loop
    vertex -1.2588190451025218 10.965925826289066 3.0
    vertex -1.0000000000000009 10.999999999999998 0.0
    vertex -1.2588190451025238 10.965925826289066 -0.25881904510252096
  endloop
endfacet
facet normal -0.1305261922200513 0.9914448613738105 4.233524706021689e-17
  outer loop
    vertex -1.0000000000000009 10.999999999999998 0.0
    vertex -1.2588190451025218 10.965925826289066 3.0
    vertex -1.0000000000000009 10.999999999999998 3.0
  endloop
endfacet
facet normal 1.6194324793955724e-17 -0.9914448613738109 -0.130526192220049
  outer loop
    vertex 42.0 -11.0 0.0
    vertex -1.2588190451025265 -10.96592582628907 -0.25881904510252096
    vertex 42.25881904510253 -10.965925826289068 -0.25881904510252096
  endloop
endfacet
facet normal 1.6194324793955724e-17 -0.9914448613738109 -0.130526192220049
  outer loop
    vertex -1.2588190451025265 -10.96592582628907 -0.25881904510252096
    vertex 42.0 -11.0 0.0
    vertex -1.0000000000000009 -11.0 0.0
  endloop
endfacet
facet normal -0.1305261922200513 6.939542507613769e-18 -0.9914448613738105
  outer loop
    vertex -1.2588190451025216 10.258819045102518 -0.9659258262890682
    vertex -1.0000000000000009 -10.0 -0.9999999999999999
    vertex -1.2588190451025238 -10.258819045102523 -0.9659258262890682
  endloop
endfacet
facet normal -0.1305261922200513 6.939542507613769e-18 -0.9914448613738105
  outer loop
    vertex -1.0000000000000009 -10.0 -0.9999999999999999
    vertex -1.2588190451025216 10.258819045102518 -0.9659258262890682
    vertex -1.0000000000000009 9.999999999999998 -0.9999999999999999
  endloop
endfacet
facet normal -0.3826834323650916 1.2571713276699918e-17 -0.9238795325112862
  outer loop
    vertex -1.2588190451025216 10.258819045102518 -0.9659258262890682
    vertex -1.5 -10.500000000000002 -0.8660254037844386
    vertex -1.5000000000000007 10.499999999999998 -0.8660254037844386
  endloop
endfacet
facet normal -0.3826834323650916 1.2571713276699918e-17 -0.9238795325112862
  outer loop
    vertex -1.5 -10.500000000000002 -0.8660254037844386
    vertex -1.2588190451025216 10.258819045102518 -0.9659258262890682
    vertex -1.2588190451025238 -10.258819045102523 -0.9659258262890682
  endloop
endfacet
facet normal -0.608761429008718 1.546875911878393e-17 -0.7933533402912372
  outer loop
    vertex -1.7071067811865486 10.707106781186544 -0.7071067811865476
    vertex -1.5 -10.500000000000002 -0.8660254037844386
    vertex -1.7071067811865503 -10.70710678118655 -0.7071067811865476
  endloop
endfacet
facet normal -0.608761429008718 1.546875911878393e-17 -0.7933533402912372
  outer loop
    vertex -1.5 -10.500000000000002 -0.8660254037844386
    vertex -1.7071067811865486 10.707106781186544 -0.7071067811865476
    vertex -1.5000000000000007 10.499999999999998 -0.8660254037844386
  endloop
endfacet
facet normal -0.793353340291237 3.336965562763603e-17 -0.6087614290087182
  outer loop
    vertex -1.8660254037844395 -10.500000000000004 -0.5
    vertex -1.7071067811865486 10.707106781186544 -0.7071067811865476
    vertex -1.7071067811865503 -10.70710678118655 -0.7071067811865476
  endloop
endfacet
facet normal -0.793353340291237 3.336965562763603e-17 -0.6087614290087182
  outer loop
    vertex -1.7071067811865486 10.707106781186544 -0.7071067811865476
    vertex -1.8660254037844395 -10.500000000000004 -0.5
    vertex -1.8660254037844395 10.499999999999998 -0.5
  endloop
endfacet
facet normal -0.9238795325112867 0.0 -0.3826834323650902
  outer loop
    vertex -1.965925826289069 -10.258819045102523 -0.25881904510252096
    vertex -1.8660254037844395 10.499999999999998 -0.5
    vertex -1.8660254037844395 -10.500000000000004 -0.5
  endloop
endfacet
facet normal -0.9238795325112867 0.0 -0.3826834323650902
  outer loop
    vertex -1.8660254037844395 10.499999999999998 -0.5
    vertex -1.965925826289069 -10.258819045102523 -0.25881904510252096
    vertex -1.965925826289069 10.258819045102518 -0.25881904510252096
  endloop
endfacet
facet normal -0.9914448613738105 9.346413714612529e-20 -0.13052619222005163
  outer loop
    vertex -2.000000000000001 -10.000000000000002 0.0
    vertex -1.965925826289069 10.258819045102518 -0.25881904510252096
    vertex -1.965925826289069 -10.258819045102523 -0.25881904510252096
  endloop
endfacet
facet normal -0.9914448613738105 9.346413714612529e-20 -0.13052619222005163
  outer loop
    vertex -1.965925826289069 10.258819045102518 -0.25881904510252096
    vertex -2.000000000000001 -10.000000000000002 0.0
    vertex -2.000000000000001 9.999999999999998 0.0
  endloop
endfacet
facet normal -0.9914448613738105 -0.13052619222005146 6.116534161154057e-17
  outer loop
    vertex -1.965925826289069 -10.258819045102522 3.0
    vertex -2.000000000000001 -10.000000000000002 0.0
    vertex -1.965925826289069 -10.258819045102523 -0.25881904510252096
  endloop
endfacet
facet normal -0.9914448613738105 -0.13052619222005146 6.116534161154057e-17
  outer loop
    vertex -2.000000000000001 -10.000000000000002 0.0
    vertex -1.965925826289069 -10.258819045102522 3.0
    vertex -2.000000000000001 -10.000000000000002 3.0
  endloop
endfacet
facet normal -0.9238795325112867 -0.3826834323650903 3.1837680049347297e-16
  outer loop
    vertex -1.8660254037844395 -10.5 3.0
    vertex -1.965925826289069 -10.258819045102523 -0.25881904510252096
    vertex -1.8660254037844395 -10.500000000000004 -0.5
  endloop
endfacet
facet normal -0.9238795325112867 -0.3826834323650903 3.1837680049347297e-16
  outer loop
    vertex -1.965925826289069 -10.258819045102523 -0.25881904510252096
    vertex -1.8660254037844395 -10.5 3.0
    vertex -1.965925826289069 -10.258819045102522 3.0
  endloop
endfacet
facet normal -0.7933533402912355 -0.6087614290087202 5.925280553614289e-16
  outer loop
    vertex -1.7071067811865481 -10.707106781186548 3.0
    vertex -1.8660254037844395 -10.500000000000004 -0.5
    vertex -1.7071067811865503 -10.70710678118655 -0.7071067811865476
  endloop
endfacet
facet normal -0.7933533402912355 -0.6087614290087202 5.925280553614289e-16
  outer loop
    vertex -1.8660254037844395 -10.500000000000004 -0.5
    vertex -1.7071067811865481 -10.707106781186548 3.0
    vertex -1.8660254037844395 -10.5 3.0
  endloop
endfacet
facet normal -0.6087614290087223 -0.7933533402912339 7.757866807119999e-16
  outer loop
    vertex -1.5000000000000058 -10.86602540378444 -0.5
    vertex -1.7071067811865481 -10.707106781186548 3.0
    vertex -1.7071067811865503 -10.70710678118655 -0.7071067811865476
  endloop
endfacet
facet normal -0.6087614290087223 -0.7933533402912339 7.757866807119999e-16
  outer loop
    vertex -1.7071067811865481 -10.707106781186548 3.0
    vertex -1.5000000000000058 -10.86602540378444 -0.5
    vertex -1.5000000000000004 -10.86602540378444 3.0
  endloop
endfacet
facet normal -0.38268343236509134 -0.9238795325112862 6.169073565701535e-16
  outer loop
    vertex -1.2588190451025265 -10.96592582628907 -0.25881904510252096
    vertex -1.5000000000000004 -10.86602540378444 3.0
    vertex -1.5000000000000058 -10.86602540378444 -0.5
  endloop
endfacet
facet normal -0.38268343236509134 -0.9238795325112862 6.169073565701535e-16
  outer loop
    vertex -1.5000000000000004 -10.86602540378444 3.0
    vertex -1.2588190451025265 -10.96592582628907 -0.25881904510252096
    vertex -1.258819045102521 -10.96592582628907 3.0
  endloop
endfacet
facet normal -0.13052619222004774 -0.9914448613738109 -6.36327333113682e-17
  outer loop
    vertex -1.0000000000000009 -11.0 0.0
    vertex -1.258819045102521 -10.96592582628907 3.0
    vertex -1.2588190451025265 -10.96592582628907 -0.25881904510252096
  endloop
endfacet
facet normal -0.13052619222004774 -0.9914448613738109 -6.36327333113682e-17
  outer loop
    vertex -1.258819045102521 -10.96592582628907 3.0
    vertex -1.0000000000000009 -11.0 0.0
    vertex -0.9999999999999996 -11.000000000000002 3.0
  endloop
endfacet
facet normal 0.13052619222005077 -7.548156331105033e-20 -0.9914448613738105
  outer loop
    vertex 42.25881904510253 10.258819045102516 -0.9659258262890682
    vertex 42.0 -9.999999999999998 -0.9999999999999999
    vertex 42.0 9.999999999999998 -0.9999999999999999
  endloop
endfacet
facet normal 0.13052619222005077 -7.548156331105033e-20 -0.9914448613738105
  outer loop
    vertex 42.0 -9.999999999999998 -0.9999999999999999
    vertex 42.25881904510253 10.258819045102516 -0.9659258262890682
    vertex 42.25881904510253 -10.258819045102522 -0.9659258262890682
  endloop
endfacet
facet normal 0.3826834323650935 1.9698273220107222e-19 -0.9238795325112854
  outer loop
    vertex 42.5 10.499999999999993 -0.8660254037844386
    vertex 42.25881904510253 -10.258819045102522 -0.9659258262890682
    vertex 42.25881904510253 10.258819045102516 -0.9659258262890682
  endloop
endfacet
facet normal 0.3826834323650935 1.9698273220107222e-19 -0.9238795325112854
  outer loop
    vertex 42.25881904510253 -10.258819045102522 -0.9659258262890682
    vertex 42.5 10.499999999999993 -0.8660254037844386
    vertex 42.5 -10.5 -0.8660254037844386
  endloop
endfacet
facet normal 0.6087614290087157 2.29655100710672e-19 -0.793353340291239
  outer loop
    vertex 42.70710678118655 10.707106781186544 -0.7071067811865476
    vertex 42.5 -10.5 -0.8660254037844386
    vertex 42.5 10.499999999999993 -0.8660254037844386
  endloop
endfacet
facet normal 0.6087614290087157 2.29655100710672e-19 -0.793353340291239
  outer loop
    vertex 42.5 -10.5 -0.8660254037844386
    vertex 42.70710678118655 10.707106781186544 -0.7071067811865476
    vertex 42.70710678118655 -10.707106781186548 -0.7071067811865476
  endloop
endfacet
facet normal 0.7933533402912376 1.3192979669992778e-19 -0.6087614290087178
  outer loop
    vertex 42.70710678118655 10.707106781186544 -0.7071067811865476
    vertex 42.86602540378444 -10.499999999999998 -0.5
    vertex 42.70710678118655 -10.707106781186548 -0.7071067811865476
  endloop
endfacet
facet normal 0.7933533402912376 1.3192979669992778e-19 -0.6087614290087178
  outer loop
    vertex 42.86602540378444 -10.499999999999998 -0.5
    vertex 42.70710678118655 10.707106781186544 -0.7071067811865476
    vertex 42.86602540378444 10.499999999999998 -0.5
  endloop
endfacet
facet normal 0.92387953251129 -0.0 -0.3826834323650822
  outer loop
    vertex 42.86602540378444 10.499999999999998 -0.5
    vertex 42.965925826289066 -10.258819045102518 -0.25881904510252096
    vertex 42.86602540378444 -10.499999999999998 -0.5
  endloop
endfacet
facet normal 0.92387953251129 -0.0 -0.3826834323650822
  outer loop
    vertex 42.965925826289066 -10.258819045102518 -0.25881904510252096
    vertex 42.86602540378444 10.499999999999998 -0.5
    vertex 42.965925826289066 10.258819045102518 -0.25881904510252096
  endloop
endfacet
facet normal 0.9914448613738105 -0.0 -0.13052619222005163
  outer loop
    vertex 42.965925826289066 10.258819045102518 -0.25881904510252096
    vertex 43.0 -9.999999999999998 0.0
    vertex 42.965925826289066 -10.258819045102518 -0.25881904510252096
  endloop
endfacet
facet normal 0.9914448613738105 -0.0 -0.13052619222005163
  outer loop
    vertex 43.0 -9.999999999999998 0.0
    vertex 42.965925826289066 10.258819045102518 -0.25881904510252096
    vertex 43.0 9.999999999999998 0.0
  endloop
endfacet
facet normal 0.13052619222005077 -0.9914448613738105 1.9479408156541365e-19
  outer loop
    vertex 42.25881904510253 -10.965925826289068 3.0
    vertex 42.0 -11.0 0.0
    vertex 42.25881904510253 -10.965925826289068 -0.25881904510252096
  endloop
endfacet
facet normal 0.13052619222005077 -0.9914448613738105 1.9479408156541365e-19
  outer loop
    vertex 42.0 -11.0 0.0
    vertex 42.25881904510253 -10.965925826289068 3.0
    vertex 42.0 -11.0 3.0
  endloop
endfacet
facet normal 0.3826834323650914 -0.9238795325112862 3.2949547959444656e-16
  outer loop
    vertex 42.5 -10.866025403784437 3.0
    vertex 42.25881904510253 -10.965925826289068 -0.25881904510252096
    vertex 42.50000000000001 -10.866025403784437 -0.5
  endloop
endfacet
facet normal 0.3826834323650914 -0.9238795325112862 3.2949547959444656e-16
  outer loop
    vertex 42.25881904510253 -10.965925826289068 -0.25881904510252096
    vertex 42.5 -10.866025403784437 3.0
    vertex 42.25881904510253 -10.965925826289068 3.0
  endloop
endfacet
facet normal 0.6087614290087234 -0.7933533402912331 9.518178602766974e-16
  outer loop
    vertex 42.707106781186546 -10.707106781186548 3.0
    vertex 42.50000000000001 -10.866025403784437 -0.5
    vertex 42.70710678118655 -10.707106781186548 -0.7071067811865476
  endloop
endfacet
facet normal 0.6087614290087234 -0.7933533402912331 9.518178602766974e-16
  outer loop
    vertex 42.50000000000001 -10.866025403784437 -0.5
    vertex 42.707106781186546 -10.707106781186548 3.0
    vertex 42.5 -10.866025403784437 3.0
  endloop
endfacet
facet normal 0.7933533402912339 -0.6087614290087222 4.077994410374511e-16
  outer loop
    vertex 42.86602540378444 -10.499999999999998 -0.5
    vertex 42.707106781186546 -10.707106781186548 3.0
    vertex 42.70710678118655 -10.707106781186548 -0.7071067811865476
  endloop
endfacet
facet normal 0.7933533402912339 -0.6087614290087222 4.077994410374511e-16
  outer loop
    vertex 42.707106781186546 -10.707106781186548 3.0
    vertex 42.86602540378444 -10.499999999999998 -0.5
    vertex 42.86602540378444 -10.5 3.0
  endloop
endfacet
facet normal 0.92387953251129 -0.38268343236508195 -3.175399106686691e-16
  outer loop
    vertex 42.86602540378444 -10.499999999999998 -0.5
    vertex 42.965925826289066 -10.258819045102522 3.0
    vertex 42.86602540378444 -10.5 3.0
  endloop
endfacet
facet normal 0.92387953251129 -0.38268343236508195 -3.175399106686691e-16
  outer loop
    vertex 42.965925826289066 -10.258819045102522 3.0
    vertex 42.86602540378444 -10.499999999999998 -0.5
    vertex 42.965925826289066 -10.258819045102518 -0.25881904510252096
  endloop
endfacet
facet normal 0.9914448613738105 -0.13052619222005177 -8.967020888061347e-17
  outer loop
    vertex 42.965925826289066 -10.258819045102518 -0.25881904510252096
    vertex 43.0 -10.0 3.0
    vertex 42.965925826289066 -10.258819045102522 3.0
  endloop
endfacet
facet normal 0.9914448613738105 -0.13052619222005177 -8.967020888061347e-17
  outer loop
    vertex 43.0 -10.0 3.0
    vertex 42.965925826289066 -10.258819045102518 -0.25881904510252096
    vertex 43.0 -9.999999999999998 0.0
  endloop
endfacet
facet normal 4.29331924293338e-18 0.13052619222005282 -0.9914448613738103
  outer loop
    vertex 42.25881904510253 10.258819045102516 -0.9659258262890682
    vertex -1.0000000000000009 9.999999999999998 -0.9999999999999999
    vertex -1.2588190451025216 10.258819045102518 -0.9659258262890682
  endloop
endfacet
facet normal 4.29331924293338e-18 0.13052619222005282 -0.9914448613738103
  outer loop
    vertex -1.0000000000000009 9.999999999999998 -0.9999999999999999
    vertex 42.25881904510253 10.258819045102516 -0.9659258262890682
    vertex 42.0 9.999999999999998 -0.9999999999999999
  endloop
endfacet
facet normal 4.321117736153848e-17 0.38268343236509056 -0.9238795325112865
  outer loop
    vertex 42.5 10.499999999999993 -0.8660254037844386
    vertex -1.2588190451025216 10.258819045102518 -0.9659258262890682
    vertex -1.5000000000000007 10.499999999999998 -0.8660254037844386
  endloop
endfacet
facet normal 4.321117736153848e-17 0.38268343236509056 -0.9238795325112865
  outer loop
    vertex -1.2588190451025216 10.258819045102518 -0.9659258262890682
    vertex 42.5 10.499999999999993 -0.8660254037844386
    vertex 42.25881904510253 10.258819045102516 -0.9659258262890682
  endloop
endfacet
facet normal 4.8283736713762006e-17 0.6087614290087169 -0.793353340291238
  outer loop
    vertex 42.70710678118655 10.707106781186544 -0.7071067811865476
    vertex -1.5000000000000007 10.499999999999998 -0.8660254037844386
    vertex -1.7071067811865486 10.707106781186544 -0.7071067811865476
  endloop
endfacet
facet normal 4.8283736713762006e-17 0.6087614290087169 -0.793353340291238
  outer loop
    vertex -1.5000000000000007 10.499999999999998 -0.8660254037844386
    vertex 42.70710678118655 10.707106781186544 -0.7071067811865476
    vertex 42.5 10.499999999999993 -0.8660254037844386
  endloop
endfacet
facet normal 5.2855068834644983e-20 0.7933533402912322 -0.6087614290087245
  outer loop
    vertex -1.5000000000000029 10.866025403784437 -0.5
    vertex 42.70710678118655 10.707106781186544 -0.7071067811865476
    vertex -1.7071067811865486 10.707106781186544 -0.7071067811865476
  endloop
endfacet
facet normal 5.2855068834644983e-20 0.7933533402912322 -0.6087614290087245
  outer loop
    vertex 42.70710678118655 10.707106781186544 -0.7071067811865476
    vertex -1.5000000000000029 10.866025403784437 -0.5
    vertex 42.5 10.866025403784437 -0.5
  endloop
endfacet
facet normal -6.74960984681285e-20 0.9238795325112881 -0.3826834323650868
  outer loop
    vertex -1.2588190451025238 10.965925826289066 -0.25881904510252096
    vertex 42.5 10.866025403784437 -0.5
    vertex -1.5000000000000029 10.866025403784437 -0.5
  endloop
endfacet
facet normal -6.74960984681285e-20 0.9238795325112881 -0.3826834323650868
  outer loop
    vertex 42.5 10.866025403784437 -0.5
    vertex -1.2588190451025238 10.965925826289066 -0.25881904510252096
    vertex 42.25881904510253 10.965925826289066 -0.25881904510252096
  endloop
endfacet
facet normal 1.6007062813125637e-17 0.9914448613738109 -0.130526192220049
  outer loop
    vertex -1.0000000000000009 10.999999999999998 0.0
    vertex 42.25881904510253 10.965925826289066 -0.25881904510252096
    vertex -1.2588190451025238 10.965925826289066 -0.25881904510252096
  endloop
endfacet
facet normal 1.6007062813125637e-17 0.9914448613738109 -0.130526192220049
  outer loop
    vertex 42.25881904510253 10.965925826289066 -0.25881904510252096
    vertex -1.0000000000000009 10.999999999999998 0.0
    vertex 42.0 10.999999999999996 0.0
  endloop
endfacet
facet normal 0.13052619222004821 0.9914448613738109 2.325841333891041e-16
  outer loop
    vertex 42.0 10.999999999999996 0.0
    vertex 42.25881904510253 10.965925826289064 2.9999999999999996
    vertex 42.25881904510253 10.965925826289066 -0.25881904510252096
  endloop
endfacet
facet normal 0.13052619222004821 0.9914448613738109 2.325841333891041e-16
  outer loop
    vertex 42.25881904510253 10.965925826289064 2.9999999999999996
    vertex 42.0 10.999999999999996 0.0
    vertex 42.0 10.999999999999996 2.9999999999999996
  endloop
endfacet
facet normal 0.3826834323650931 0.9238795325112854 5.840295420242769e-16
  outer loop
    vertex 42.25881904510253 10.965925826289066 -0.25881904510252096
    vertex 42.5 10.866025403784436 2.9999999999999996
    vertex 42.5 10.866025403784437 -0.5
  endloop
endfacet
facet normal 0.3826834323650931 0.9238795325112854 5.840295420242769e-16
  outer loop
    vertex 42.5 10.866025403784436 2.9999999999999996
    vertex 42.25881904510253 10.965925826289066 -0.25881904510252096
    vertex 42.25881904510253 10.965925826289064 2.9999999999999996
  endloop
endfacet
facet normal 0.6087614290087233 0.7933533402912332 9.502253722221546e-16
  outer loop
    vertex 42.5 10.866025403784437 -0.5
    vertex 42.707106781186546 10.707106781186544 2.9999999999999996
    vertex 42.70710678118655 10.707106781186544 -0.7071067811865476
  endloop
endfacet
facet normal 0.6087614290087233 0.7933533402912332 9.502253722221546e-16
  outer loop
    vertex 42.707106781186546 10.707106781186544 2.9999999999999996
    vertex 42.5 10.866025403784437 -0.5
    vertex 42.5 10.866025403784436 2.9999999999999996
  endloop
endfacet
facet normal 0.793353340291232 0.608761429008725 8.7709342079549e-16
  outer loop
    vertex 42.86602540378444 10.499999999999998 -0.5
    vertex 42.707106781186546 10.707106781186544 2.9999999999999996
    vertex 42.86602540378444 10.499999999999996 2.9999999999999996
  endloop
endfacet
facet normal 0.793353340291232 0.608761429008725 8.7709342079549e-16
  outer loop
    vertex 42.707106781186546 10.707106781186544 2.9999999999999996
    vertex 42.86602540378444 10.499999999999998 -0.5
    vertex 42.70710678118655 10.707106781186544 -0.7071067811865476
  endloop
endfacet
facet normal 0.92387953251129 0.3826834323650822 1.5984595653765489e-16
  outer loop
    vertex 42.965925826289066 10.258819045102518 -0.25881904510252096
    vertex 42.86602540378444 10.499999999999996 2.9999999999999996
    vertex 42.965925826289066 10.258819045102516 2.9999999999999996
  endloop
endfacet
facet normal 0.92387953251129 0.3826834323650822 1.5984595653765489e-16
  outer loop
    vertex 42.86602540378444 10.499999999999996 2.9999999999999996
    vertex 42.965925826289066 10.258819045102518 -0.25881904510252096
    vertex 42.86602540378444 10.499999999999998 -0.5
  endloop
endfacet
facet normal 0.9914448613738105 0.1305261922200518 8.694309173869778e-17
  outer loop
    vertex 43.0 9.999999999999998 0.0
    vertex 42.965925826289066 10.258819045102516 2.9999999999999996
    vertex 43.0 9.999999999999996 2.9999999999999996
  endloop
endfacet
facet normal 0.9914448613738105 0.1305261922200518 8.694309173869778e-17
  outer loop
    vertex 42.965925826289066 10.258819045102516 2.9999999999999996
    vertex 43.0 9.999999999999998 0.0
    vertex 42.965925826289066 10.258819045102518 -0.25881904510252096
  endloop
endfacet
facet normal -0.9914448613738105 0.13052619222005216 3.2465680260902974e-19
  outer loop
    vertex -1.965925826289069 10.258819045102518 3.0
    vertex -2.000000000000001 9.999999999999998 0.0
    vertex -2.000000000000001 9.999999999999998 3.0
  endloop
endfacet
facet normal -0.9914448613738105 0.13052619222005216 3.2465680260902974e-19
  outer loop
    vertex -2.000000000000001 9.999999999999998 0.0
    vertex -1.965925826289069 10.258819045102518 3.0
    vertex -1.965925826289069 10.258819045102518 -0.25881904510252096
  endloop
endfacet
facet normal -0.9238795325112867 0.3826834323650902 1.1955568925778173e-19
  outer loop
    vertex -1.8660254037844395 10.499999999999998 3.0
    vertex -1.965925826289069 10.258819045102518 -0.25881904510252096
    vertex -1.965925826289069 10.258819045102518 3.0
  endloop
endfacet
facet normal -0.9238795325112867 0.3826834323650902 1.1955568925778173e-19
  outer loop
    vertex -1.965925826289069 10.258819045102518 -0.25881904510252096
    vertex -1.8660254037844395 10.499999999999998 3.0
    vertex -1.8660254037844395 10.499999999999998 -0.5
  endloop
endfacet
facet normal 6.372616827959886e-18 1.69214298764803e-17 1.0
  outer loop
    vertex 42.0 -11.0 3.0
    vertex -0.49999999999999944 -9.5 3.0
    vertex -0.9999999999999996 -11.000000000000002 3.0
  endloop
endfacet
facet normal 6.372616827959886e-18 1.69214298764803e-17 1.0
  outer loop
    vertex -0.49999999999999944 -9.5 3.0
    vertex 42.0 -11.0 3.0
    vertex 4.7 -9.5 3.0
  endloop
endfacet
facet normal 6.372616827959886e-18 1.69214298764803e-17 1.0
  outer loop
    vertex 4.7 -9.5 3.0
    vertex 42.0 -11.0 3.0
    vertex 41.0 -9.5 3.0
  endloop
endfacet
facet normal 6.372616827959886e-18 1.69214298764803e-17 1.0
  outer loop
    vertex 41.0 -9.5 3.0
    vertex 42.0 -11.0 3.0
    vertex 41.0 9.5 3.0
  endloop
endfacet
facet normal 6.372616827959886e-18 1.69214298764803e-17 1.0
  outer loop
    vertex 42.707106781186546 -10.707106781186548 3.0
    vertex 42.5 -9.5 3.0
    vertex 42.5 -10.866025403784437 3.0
  endloop
endfacet
facet normal 6.372616827959886e-18 1.69214298764803e-17 1.0
  outer loop
    vertex 42.5 -9.5 3.0
    vertex 42.707106781186546 -10.707106781186548 3.0
    vertex 43.0 -9.5 3.0
  endloop
endfacet
facet normal 6.372616827959886e-18 1.69214298764803e-17 1.0
  outer loop
    vertex 43.0 -9.5 3.0
    vertex 42.707106781186546 -10.707106781186548 3.0
    vertex 42.86602540378444 -10.5 3.0
  endloop
endfacet
facet normal 6.372616827959886e-18 1.69214298764803e-17 1.0
  outer loop
    vertex 43.0 -9.5 3.0
    vertex 42.86602540378444 -10.5 3.0
    vertex 42.965925826289066 -10.258819045102522 3.0
  endloop
endfacet
facet normal 6.372616827959886e-18 1.69214298764803e-17 1.0
  outer loop
    vertex 43.0 -9.5 3.0
    vertex 42.965925826289066 -10.258819045102522 3.0
    vertex 43.0 -10.0 3.0
  endloop
endfacet
facet normal 6.372616827959886e-18 1.69214298764803e-17 1.0
  outer loop
    vertex -1.965925826289069 -10.258819045102522 3.0
    vertex -2.000000000000001 9.999999999999998 3.0
    vertex -2.000000000000001 -10.000000000000002 3.0
  endloop
endfacet
facet normal 6.372616827959886e-18 1.69214298764803e-17 1.0
  outer loop
    vertex -2.000000000000001 9.999999999999998 3.0
    vertex -1.965925826289069 -10.258819045102522 3.0
    vertex -1.965925826289069 10.258819045102518 3.0
  endloop
endfacet
facet normal 6.372616827959886e-18 1.69214298764803e-17 1.0
  outer loop
    vertex -1.965925826289069 10.258819045102518 3.0
    vertex -1.965925826289069 -10.258819045102522 3.0
    vertex -1.8660254037844395 -10.5 3.0
  endloop
endfacet
facet normal 6.372616827959886e-18 1.69214298764803e-17 1.0
  outer loop
    vertex -1.965925826289069 10.258819045102518 3.0
    vertex -1.8660254037844395 -10.5 3.0
    vertex -1.8660254037844395 10.499999999999998 3.0
  endloop
endfacet
facet normal 6.372616827959886e-18 1.69214298764803e-17 1.0
  outer loop
    vertex -1.8660254037844395 10.499999999999998 3.0
    vertex -1.8660254037844395 -10.5 3.0
    vertex -1.7071067811865481 -10.707106781186548 3.0
  endloop
endfacet
facet normal 6.372616827959886e-18 1.69214298764803e-17 1.0
  outer loop
    vertex -1.8660254037844395 10.499999999999998 3.0
    vertex -1.7071067811865481 -10.707106781186548 3.0
    vertex -1.7071067811865486 10.707106781186544 3.0
  endloop
endfacet
facet normal 6.372616827959886e-18 1.69214298764803e-17 1.0
  outer loop
    vertex -1.7071067811865486 10.707106781186544 3.0
    vertex -1.7071067811865481 -10.707106781186548 3.0
    vertex -1.5000000000000009 10.866025403784436 3.0
  endloop
endfacet
facet normal 6.372616827959886e-18 1.69214298764803e-17 1.0
  outer loop
    vertex -1.5000000000000009 10.866025403784436 3.0
    vertex -1.7071067811865481 -10.707106781186548 3.0
    vertex -1.5000000000000004 -10.86602540378444 3.0
  endloop
endfacet
facet normal 6.372616827959886e-18 1.69214298764803e-17 1.0
  outer loop
    vertex -1.5000000000000009 10.866025403784436 3.0
    vertex -1.5000000000000004 -10.86602540378444 3.0
    vertex -1.2588190451025218 10.965925826289066 3.0
  endloop
endfacet
facet normal 6.372616827959886e-18 1.69214298764803e-17 1.0
  outer loop
    vertex -1.2588190451025218 10.965925826289066 3.0
    vertex -1.5000000000000004 -10.86602540378444 3.0
    vertex -1.258819045102521 -10.96592582628907 3.0
  endloop
endfacet
facet normal 6.372616827959886e-18 1.69214298764803e-17 1.0
  outer loop
    vertex -1.2588190451025218 10.965925826289066 3.0
    vertex -1.258819045102521 -10.96592582628907 3.0
    vertex -1.0000000000000009 10.999999999999998 3.0
  endloop
endfacet
facet normal 6.372616827959886e-18 1.69214298764803e-17 1.0
  outer loop
    vertex -1.0000000000000009 10.999999999999998 3.0
    vertex -1.258819045102521 -10.96592582628907 3.0
    vertex -0.9999999999999996 -11.000000000000002 3.0
  endloop
endfacet
facet normal 6.372616827959886e-18 1.69214298764803e-17 1.0
  outer loop
    vertex -1.0000000000000009 10.999999999999998 3.0
    vertex -0.9999999999999996 -11.000000000000002 3.0
    vertex -0.49999999999999944 9.5 3.0
  endloop
endfacet
facet normal 6.372616827959886e-18 1.69214298764803e-17 1.0
  outer loop
    vertex -1.0000000000000009 10.999999999999998 3.0
    vertex -0.49999999999999944 9.5 3.0
    vertex 42.0 10.999999999999996 2.9999999999999996
  endloop
endfacet
facet normal 6.372616827959886e-18 1.69214298764803e-17 1.0
  outer loop
    vertex -0.49999999999999944 9.5 3.0
    vertex -0.9999999999999996 -11.000000000000002 3.0
    vertex -0.49999999999999944 -9.5 3.0
  endloop
endfacet
facet normal 6.372616827959886e-18 1.69214298764803e-17 1.0
  outer loop
    vertex -0.49999999999999944 9.5 3.0
    vertex -0.49999999999999944 -9.5 3.0
    vertex -0.49999999999999944 -7.999999999999999 3.0
  endloop
endfacet
facet normal 6.372616827959886e-18 1.69214298764803e-17 1.0
  outer loop
    vertex -0.49999999999999944 9.5 3.0
    vertex -0.49999999999999944 -7.999999999999999 3.0
    vertex -0.49999999999999944 8.299999999999999 3.0
  endloop
endfacet
facet normal 6.372616827959886e-18 1.69214298764803e-17 1.0
  outer loop
    vertex 42.0 10.999999999999996 2.9999999999999996
    vertex -0.49999999999999944 9.5 3.0
    vertex 4.5 9.5 3.0
  endloop
endfacet
facet normal 6.372616827959886e-18 1.69214298764803e-17 1.0
  outer loop
    vertex 42.0 10.999999999999996 2.9999999999999996
    vertex 4.5 9.5 3.0
    vertex 41.0 9.5 3.0
  endloop
endfacet
facet normal 6.372616827959886e-18 1.69214298764803e-17 1.0
  outer loop
    vertex 42.0 10.999999999999996 2.9999999999999996
    vertex 41.0 9.5 3.0
    vertex 42.0 -11.0 3.0
  endloop
endfacet
facet normal 6.372616827959886e-18 1.69214298764803e-17 1.0
  outer loop
    vertex 42.0 10.999999999999996 2.9999999999999996
    vertex 42.0 -11.0 3.0
    vertex 42.25881904510253 -10.965925826289068 3.0
  endloop
endfacet
facet normal 6.372616827959886e-18 1.69214298764803e-17 1.0
  outer loop
    vertex 42.0 10.999999999999996 2.9999999999999996
    vertex 42.25881904510253 -10.965925826289068 3.0
    vertex 42.25881904510253 10.965925826289064 2.9999999999999996
  endloop
endfacet
facet normal 6.372616827959886e-18 1.69214298764803e-17 1.0
  outer loop
    vertex 42.25881904510253 10.965925826289064 2.9999999999999996
    vertex 42.25881904510253 -10.965925826289068 3.0
    vertex 42.5 -10.866025403784437 3.0
  endloop
endfacet
facet normal 6.372616827959886e-18 1.69214298764803e-17 1.0
  outer loop
    vertex 42.25881904510253 10.965925826289064 2.9999999999999996
    vertex 42.5 -10.866025403784437 3.0
    vertex 42.5 10.866025403784436 2.9999999999999996
  endloop
endfacet
facet normal 6.372616827959886e-18 1.69214298764803e-17 1.0
  outer loop
    vertex 42.5 10.866025403784436 2.9999999999999996
    vertex 42.5 -10.866025403784437 3.0
    vertex 42.5 -9.5 3.0
  endloop
endfacet
facet normal 6.372616827959886e-18 1.69214298764803e-17 1.0
  outer loop
    vertex 42.5 10.866025403784436 2.9999999999999996
    vertex 42.5 -9.5 3.0
    vertex 42.5 8.999999999999998 3.0
  endloop
endfacet
facet normal 6.372616827959886e-18 1.69214298764803e-17 1.0
  outer loop
    vertex 42.5 10.866025403784436 2.9999999999999996
    vertex 42.5 8.999999999999998 3.0
    vertex 43.0 8.999999999999998 2.9999999999999996
  endloop
endfacet
facet normal 6.372616827959886e-18 1.69214298764803e-17 1.0
  outer loop
    vertex 42.5 10.866025403784436 2.9999999999999996
    vertex 43.0 8.999999999999998 2.9999999999999996
    vertex 42.707106781186546 10.707106781186544 2.9999999999999996
  endloop
endfacet
facet normal 6.372616827959886e-18 1.69214298764803e-17 1.0
  outer loop
    vertex 42.707106781186546 10.707106781186544 2.9999999999999996
    vertex 43.0 8.999999999999998 2.9999999999999996
    vertex 42.86602540378444 10.499999999999996 2.9999999999999996
  endloop
endfacet
facet normal 6.372616827959886e-18 1.69214298764803e-17 1.0
  outer loop
    vertex 42.86602540378444 10.499999999999996 2.9999999999999996
    vertex 43.0 8.999999999999998 2.9999999999999996
    vertex 42.965925826289066 10.258819045102516 2.9999999999999996
  endloop
endfacet
facet normal 6.372616827959886e-18 1.69214298764803e-17 1.0
  outer loop
    vertex 42.965925826289066 10.258819045102516 2.9999999999999996
    vertex 43.0 8.999999999999998 2.9999999999999996
    vertex 43.0 9.999999999999996 2.9999999999999996
  endloop
endfacet
facet normal -0.0 1.0 -0.0
  outer loop
    vertex 41.16145561298043 -9.5 1.2152741506405744
    vertex 43.0 -9.5 0.9999999999999999
    vertex 41.16145561298043 -9.5 0.9999999999999999
  endloop
endfacet
facet normal -0.0 1.0 -0.0
  outer loop
    vertex 43.0 -9.5 0.9999999999999999
    vertex 41.16145561298043 -9.5 1.2152741506405744
    vertex 43.0 -9.5 3.0
  endloop
endfacet
facet normal -0.0 1.0 -0.0
  outer loop
    vertex 43.0 -9.5 3.0
    vertex 41.16145561298043 -9.5 1.2152741506405744
    vertex 42.5 -9.5 3.0
  endloop
endfacet
facet normal -0.9999896235609678 0.0 -0.00455552086969231
  outer loop
    vertex -0.5079758931567792 9.5 4.750800978319154
    vertex -0.49999999999999944 8.299999999999999 3.0
    vertex -0.5079758931567792 8.299999999999999 4.750800978319154
  endloop
endfacet
facet normal -0.9999896235609678 0.0 -0.00455552086969231
  outer loop
    vertex -0.49999999999999944 8.299999999999999 3.0
    vertex -0.5079758931567792 9.5 4.750800978319154
    vertex -0.49999999999999944 9.5 3.0
  endloop
endfacet
facet normal -0.0 1.0 -0.0
  outer loop
    vertex -0.5079758931567792 9.5 4.750800978319154
    vertex 4.5 9.5 3.0
    vertex -0.49999999999999944 9.5 3.0
  endloop
endfacet
facet normal -0.0 1.0 -0.0
  outer loop
    vertex 4.5 9.5 3.0
    vertex -0.5079758931567792 9.5 4.750800978319154
    vertex 4.5 9.5 3.7034562848340227
  endloop
endfacet
facet normal 0.20470655298019091 -0.0 0.978823389160153
  outer loop
    vertex 4.5 8.299999999999999 3.7034562848340227
    vertex -0.5079758931567792 9.5 4.750800978319154
    vertex -0.5079758931567792 8.299999999999999 4.750800978319154
  endloop
endfacet
facet normal 0.20470655298019091 -0.0 0.978823389160153
  outer loop
    vertex -0.5079758931567792 9.5 4.750800978319154
    vertex 4.5 8.299999999999999 3.7034562848340227
    vertex 4.5 9.5 3.7034562848340227
  endloop
endfacet
facet normal -0.0 -0.0 1.0
  outer loop
    vertex 39.0762547341448 7.5 0.0
    vertex 36.976254734144796 8.5 0.0
    vertex 36.976254734144796 7.5 0.0
  endloop
endfacet
facet normal -0.0 -0.0 1.0
  outer loop
    vertex 36.976254734144796 8.5 0.0
    vertex 39.0762547341448 7.5 0.0
    vertex 39.0762547341448 8.5 0.0
  endloop
endfacet
facet normal -0.0 -0.0 1.0
  outer loop
    vertex 38.976254734144796 -8.5 0.0
    vertex 36.976254734144796 -7.5 0.0
    vertex 36.976254734144796 -8.5 0.0
  endloop
endfacet
facet normal -0.0 -0.0 1.0
  outer loop
    vertex 36.976254734144796 -7.5 0.0
    vertex 38.976254734144796 -8.5 0.0
    vertex 38.976254734144796 -7.5 0.0
  endloop
endfacet
facet normal 1.0 -0.0 -0.0
  outer loop
    vertex -0.49999999999999944 8.299999999999999 0.0
    vertex -0.49999999999999944 -7.999999999999999 2.0
    vertex -0.49999999999999944 -7.999999999999999 0.0
  endloop
endfacet
facet normal 1.0 -0.0 -0.0
  outer loop
    vertex -0.49999999999999944 -7.999999999999999 2.0
    vertex -0.49999999999999944 8.299999999999999 0.0
    vertex -0.49999999999999944 8.299999999999999 2.0
  endloop
endfacet
facet normal -0.0 -0.0 1.0
  outer loop
    vertex 0.5000000000000004 -7.999999999999999 3.0
    vertex -0.49999999999999944 8.299999999999999 3.0
    vertex -0.49999999999999944 -7.999999999999999 3.0
  endloop
endfacet
facet normal -0.0 -0.0 1.0
  outer loop
    vertex -0.49999999999999944 8.299999999999999 3.0
    vertex 0.5000000000000004 -7.999999999999999 3.0
    vertex 0.5000000000000004 8.299999999999999 3.0
  endloop
endfacet
facet normal 0.7071067811865475 0.0 -0.7071067811865477
  outer loop
    vertex 0.5000000000000004 8.299999999999999 3.0
    vertex -0.49999999999999944 -7.999999999999999 2.0
    vertex -0.49999999999999944 8.299999999999999 2.0
  endloop
endfacet
facet normal 0.7071067811865475 0.0 -0.7071067811865477
  outer loop
    vertex -0.49999999999999944 -7.999999999999999 2.0
    vertex 0.5000000000000004 8.299999999999999 3.0
    vertex 0.5000000000000004 -7.999999999999999 3.0
  endloop
endfacet
endsolid PwKeeper_lid_r
